<svg width="200" height="36" viewBox="0 0 200 36" fill="none" xmlns="http://www.w3.org/2000/svg">
<path d="M16.632 35.48C14.36 35.48 12.264 35.24 10.344 34.76C8.456 34.248 6.728 33.528 5.16 32.6C3.624 31.672 2.232 30.504 0.984 29.096L4.68 24.2C6.632 26.344 8.584 27.864 10.536 28.76C12.52 29.624 14.648 30.056 16.92 30.056C18.232 30.056 19.464 29.896 20.616 29.576C21.8 29.224 22.76 28.728 23.496 28.088C24.264 27.416 24.648 26.6 24.648 25.64C24.648 25 24.456 24.456 24.072 24.008C23.72 23.528 23.224 23.128 22.584 22.808C21.976 22.456 21.272 22.168 20.472 21.944C19.672 21.72 18.84 21.528 17.976 21.368C17.112 21.208 16.248 21.064 15.384 20.936C13.368 20.616 11.576 20.2 10.008 19.688C8.44 19.144 7.112 18.456 6.024 17.624C4.936 16.792 4.104 15.816 3.528 14.696C2.984 13.576 2.712 12.28 2.712 10.808C2.712 9.272 3.064 7.896 3.768 6.68C4.472 5.432 5.464 4.376 6.744 3.512C8.024 2.648 9.496 1.992 11.16 1.544C12.856 1.064 14.696 0.823999 16.68 0.823999C18.792 0.823999 20.696 1.048 22.392 1.496C24.12 1.944 25.64 2.6 26.952 3.464C28.264 4.296 29.368 5.304 30.264 6.488L26.376 10.76C25.576 9.8 24.648 8.984 23.592 8.312C22.568 7.64 21.464 7.144 20.28 6.824C19.096 6.472 17.848 6.296 16.536 6.296C15.128 6.296 13.88 6.456 12.792 6.776C11.704 7.096 10.84 7.56 10.2 8.168C9.56 8.776 9.24 9.512 9.24 10.376C9.24 11.08 9.448 11.704 9.864 12.248C10.28 12.76 10.856 13.208 11.592 13.592C12.36 13.944 13.256 14.248 14.28 14.504C15.304 14.728 16.424 14.936 17.64 15.128C19.496 15.416 21.24 15.784 22.872 16.232C24.504 16.68 25.944 17.272 27.192 18.008C28.44 18.712 29.4 19.608 30.072 20.696C30.776 21.752 31.128 23.08 31.128 24.68C31.128 26.888 30.52 28.808 29.304 30.44C28.088 32.04 26.392 33.288 24.216 34.184C22.072 35.048 19.544 35.48 16.632 35.48ZM58.7644 35.48C56.0444 35.48 53.5324 35.048 51.2284 34.184C48.9244 33.288 46.9084 32.056 45.1804 30.488C43.4844 28.92 42.1724 27.08 41.2444 24.968C40.3164 22.856 39.8524 20.584 39.8524 18.152C39.8524 15.688 40.3164 13.416 41.2444 11.336C42.1724 9.224 43.4844 7.384 45.1804 5.816C46.9084 4.248 48.9244 3.032 51.2284 2.168C53.5324 1.272 56.0444 0.823999 58.7644 0.823999C61.5484 0.823999 64.0924 1.256 66.3964 2.12C68.7004 2.984 70.7004 4.216 72.3964 5.816C74.0924 7.384 75.4044 9.224 76.3324 11.336C77.2604 13.416 77.7244 15.688 77.7244 18.152C77.7244 20.616 77.2604 22.904 76.3324 25.016C75.4044 27.096 74.0924 28.936 72.3964 30.536C70.7004 32.104 68.7004 33.32 66.3964 34.184C64.0924 35.048 61.5484 35.48 58.7644 35.48ZM58.8124 29.528C60.6684 29.528 62.3484 29.24 63.8524 28.664C65.3884 28.088 66.7164 27.288 67.8364 26.264C68.9564 25.208 69.8204 23.992 70.4284 22.616C71.0684 21.24 71.3884 19.752 71.3884 18.152C71.3884 16.552 71.0684 15.064 70.4284 13.688C69.8204 12.312 68.9564 11.112 67.8364 10.088C66.7164 9.032 65.3884 8.216 63.8524 7.64C62.3164 7.064 60.6364 6.776 58.8124 6.776C56.9884 6.776 55.2924 7.064 53.7244 7.64C52.1884 8.216 50.8604 9.016 49.7404 10.04C48.6204 11.064 47.7564 12.264 47.1484 13.64C46.5404 15.016 46.2364 16.52 46.2364 18.152C46.2364 19.752 46.5404 21.256 47.1484 22.664C47.7564 24.04 48.6204 25.24 49.7404 26.264C50.8604 27.288 52.1884 28.088 53.7244 28.664C55.2924 29.24 56.9884 29.528 58.8124 29.528ZM88.893 35V1.4H94.797L118.029 27.656L117.261 27.848C117.101 26.856 116.973 25.848 116.877 24.824C116.781 23.8 116.685 22.744 116.589 21.656C116.525 20.568 116.461 19.464 116.397 18.344C116.365 17.224 116.333 16.104 116.301 14.984C116.301 13.832 116.301 12.664 116.301 11.48V1.4H122.493V35H116.493L93.165 9.128L94.125 8.792C94.221 9.912 94.317 10.952 94.413 11.912C94.509 12.84 94.589 13.752 94.653 14.648C94.749 15.544 94.829 16.408 94.893 17.24C94.957 18.04 95.005 18.84 95.037 19.64C95.069 20.44 95.085 21.224 95.085 21.992V35H88.893ZM135.953 35V29.288H143.345V7.112H135.953V1.4H156.977V7.112H149.585V29.288H156.977V35H135.953ZM185.738 35.48C183.114 35.48 180.682 35.08 178.442 34.28C176.202 33.448 174.25 32.264 172.586 30.728C170.922 29.16 169.626 27.32 168.698 25.208C167.77 23.064 167.306 20.712 167.306 18.152C167.306 15.688 167.786 13.416 168.746 11.336C169.738 9.224 171.082 7.4 172.778 5.864C174.474 4.296 176.442 3.096 178.682 2.264C180.922 1.4 183.322 0.967998 185.882 0.967998C187.802 0.967998 189.658 1.224 191.45 1.736C193.242 2.216 194.874 2.888 196.346 3.752C197.818 4.584 199.034 5.512 199.994 6.536L196.202 11.336C195.242 10.44 194.218 9.672 193.13 9.032C192.042 8.36 190.874 7.848 189.626 7.496C188.378 7.144 187.034 6.968 185.594 6.968C184.026 6.968 182.522 7.24 181.082 7.784C179.674 8.296 178.41 9.048 177.29 10.04C176.202 11 175.322 12.168 174.65 13.544C174.01 14.92 173.69 16.472 173.69 18.2C173.69 19.992 174.01 21.592 174.65 23C175.322 24.376 176.25 25.56 177.434 26.552C178.618 27.512 179.962 28.248 181.466 28.76C183.002 29.272 184.618 29.528 186.314 29.528C187.882 29.528 189.29 29.336 190.538 28.952C191.786 28.536 192.906 28.008 193.898 27.368C194.922 26.728 195.85 26.072 196.682 25.4L199.706 30.392C198.842 31.192 197.69 31.992 196.25 32.792C194.81 33.56 193.178 34.2 191.354 34.712C189.562 35.224 187.69 35.48 185.738 35.48Z" fill="black"/>
</svg>
